# xmcd CD database file
#
# Track frame offsets:
#	150
#	9499
#	22366
#	36245
#	49831
#	61626
#	73544
#	84290
#	103690
#	115915
#
# Disc length: 1711 seconds
#
# Revision: 0
# Processed by: cddbd v1.5.1PL0 Copyright (c) Steve Scherf et al.
# Submitted via: CDex 1.51
#
DISCID=7d06ad0a
DTITLE=林　知行 - 気軽にジャズスタンダード　2
DYEAR=1900
DGENRE=Jazz
TTITLE0=いつか王子様が
TTITLE1=クリスタル　サイレンス
TTITLE2=誰かが私を愛している
TTITLE3=ラブレター
TTITLE4=I'll Never Smile Again
TTITLE5=Stardust
TTITLE6=Ruby, My Dear
TTITLE7=Amazing Grace
TTITLE8=Nigh and Day
TTITLE9=I Remember Clifford
EXTD=
EXTT0=
EXTT1=
EXTT2=
EXTT3=
EXTT4=
EXTT5=
EXTT6=
EXTT7=
EXTT8=
EXTT9=
PLAYORDER=
